HIERARCHY
ROOT Hips
{
  OFFSET 5.80788e-005 67.184 3.4734
  CHANNELS 6 Xposition Yposition Zposition Zrotation Xrotation Yrotation
  JOINT Chest
  {
    OFFSET 0 8.7983 -4.7612
    CHANNELS 3 Zrotation Xrotation Yrotation
    JOINT Chest2
    {
      OFFSET 0 8.0291 0.4195
      CHANNELS 3 Zrotation Xrotation Yrotation
      JOINT Chest3
      {
        OFFSET 0 9.9351 -2.2114
        CHANNELS 3 Zrotation Xrotation Yrotation
        JOINT Neck
        {
          OFFSET 0 22.3885 -0.4656
          CHANNELS 3 Zrotation Xrotation Yrotation
          JOINT Head
          {
            OFFSET -0.0001 12.643 3.4389
            CHANNELS 3 Zrotation Xrotation Yrotation
            End Site
            {
              OFFSET 0.0001 17.6655 0.5274
            }
          }
        }
        JOINT LeftCollar
        {
          OFFSET 2.2603 21.606 7.4023
          CHANNELS 3 Zrotation Xrotation Yrotation
          JOINT LeftShoulder
          {
            OFFSET 13.5163 -1.1332 -5.0146
            CHANNELS 3 Zrotation Xrotation Yrotation
            JOINT LeftElbow
            {
              OFFSET -0.0995 -28.05 -0.2431
              CHANNELS 3 Zrotation Xrotation Yrotation
              JOINT LeftWrist
              {
                OFFSET 0.0679 -23.3996 -0.1402
                CHANNELS 3 Zrotation Xrotation Yrotation
                JOINT LeftFinger1
                {
                  OFFSET 0.7932 -9.069 2.5189
                  CHANNELS 3 Zrotation Xrotation Yrotation
                  JOINT LeftFinger11
                  {
                    OFFSET -0.8272 -3.3923 0.5977
                    CHANNELS 3 Zrotation Xrotation Yrotation
                    JOINT LeftFinger12
                    {
                      OFFSET -0.5649 -2.3158 0.4082
                      CHANNELS 3 Zrotation Xrotation Yrotation
                      End Site
                      {
                        OFFSET -0.4919 -1.6479 0.2673
                      }
                    }
                  }
                }
                JOINT LeftFinger2
                {
                  OFFSET 0.9159 -9.2044 0.2193
                  CHANNELS 3 Zrotation Xrotation Yrotation
                  JOINT LeftFinger21
                  {
                    OFFSET 0.0117 -4.1944 -0.0248
                    CHANNELS 3 Zrotation Xrotation Yrotation
                    JOINT LeftFinger22
                    {
                      OFFSET 0.0071 -2.3249 -0.0142
                      CHANNELS 3 Zrotation Xrotation Yrotation
                      End Site
                      {
                        OFFSET -0.1475 -2.0882 0.0028
                      }
                    }
                  }
                }
                JOINT LeftFinger3
                {
                  OFFSET 0.6113 -8.7231 -2.0637
                  CHANNELS 3 Zrotation Xrotation Yrotation
                  JOINT LeftFinger31
                  {
                    OFFSET -0.1927 -3.8059 -0.2383
                    CHANNELS 3 Zrotation Xrotation Yrotation
                    JOINT LeftFinger32
                    {
                      OFFSET -0.1091 -2.1688 -0.1362
                      CHANNELS 3 Zrotation Xrotation Yrotation
                      End Site
                      {
                        OFFSET -0.2358 -1.9176 -0.0906
                      }
                    }
                  }
                }
                JOINT LeftFinger4
                {
                  OFFSET -0.6151 -8.0947 -3.5641
                  CHANNELS 3 Zrotation Xrotation Yrotation
                  JOINT LeftFinger41
                  {
                    OFFSET -0.4882 -2.341 -0.6462
                    CHANNELS 3 Zrotation Xrotation Yrotation
                    JOINT LeftFinger42
                    {
                      OFFSET -0.3575 -1.7167 -0.4742
                      CHANNELS 3 Zrotation Xrotation Yrotation
                      End Site
                      {
                        OFFSET -0.4187 -1.5237 -0.3496
                      }
                    }
                  }
                }
                JOINT LeftFinger0
                {
                  OFFSET -1.42 -1.8761 1.4223
                  CHANNELS 3 Zrotation Xrotation Yrotation
                  JOINT LeftFinger01
                  {
                    OFFSET -1.1471 -3.4929 2.6334
                    CHANNELS 3 Zrotation Xrotation Yrotation
                    JOINT LeftFinger02
                    {
                      OFFSET -0.823 -2.3 1.6571
                      CHANNELS 3 Zrotation Xrotation Yrotation
                      End Site
                      {
                        OFFSET -0.5822 -1.6914 1.1582
                      }
                    }
                  }
                }
              }
            }
          }
        }
        JOINT RightCollar
        {
          OFFSET -2.2603 21.606 7.4023
          CHANNELS 3 Zrotation Xrotation Yrotation
          JOINT RightShoulder
          {
            OFFSET -13.5187 -1.1334 -5.0155
            CHANNELS 3 Zrotation Xrotation Yrotation
            JOINT RightElbow
            {
              OFFSET 0.0994 -28.0499 -0.2431
              CHANNELS 3 Zrotation Xrotation Yrotation
              JOINT RightWrist
              {
                OFFSET -0.0679 -23.3996 -0.1402
                CHANNELS 3 Zrotation Xrotation Yrotation
                JOINT RightFinger1
                {
                  OFFSET -0.7932 -9.0691 2.5189
                  CHANNELS 3 Zrotation Xrotation Yrotation
                  JOINT RightFinger11
                  {
                    OFFSET 0.8272 -3.3923 0.5977
                    CHANNELS 3 Zrotation Xrotation Yrotation
                    JOINT RightFinger12
                    {
                      OFFSET 0.565 -2.3158 0.4082
                      CHANNELS 3 Zrotation Xrotation Yrotation
                      End Site
                      {
                        OFFSET 0.4919 -1.6479 0.2673
                      }
                    }
                  }
                }
                JOINT RightFinger2
                {
                  OFFSET -0.916 -9.2044 0.2193
                  CHANNELS 3 Zrotation Xrotation Yrotation
                  JOINT RightFinger21
                  {
                    OFFSET -0.0117 -4.1944 -0.0248
                    CHANNELS 3 Zrotation Xrotation Yrotation
                    JOINT RightFinger22
                    {
                      OFFSET -0.0071 -2.3249 -0.0142
                      CHANNELS 3 Zrotation Xrotation Yrotation
                      End Site
                      {
                        OFFSET 0.1475 -2.0882 0.0028
                      }
                    }
                  }
                }
                JOINT RightFinger3
                {
                  OFFSET -0.6113 -8.7231 -2.0637
                  CHANNELS 3 Zrotation Xrotation Yrotation
                  JOINT RightFinger31
                  {
                    OFFSET 0.1927 -3.8059 -0.2383
                    CHANNELS 3 Zrotation Xrotation Yrotation
                    JOINT RightFinger32
                    {
                      OFFSET 0.1091 -2.1688 -0.1362
                      CHANNELS 3 Zrotation Xrotation Yrotation
                      End Site
                      {
                        OFFSET 0.2358 -1.9176 -0.0906
                      }
                    }
                  }
                }
                JOINT RightFinger4
                {
                  OFFSET 0.6151 -8.0947 -3.564
                  CHANNELS 3 Zrotation Xrotation Yrotation
                  JOINT RightFinger41
                  {
                    OFFSET 0.4882 -2.341 -0.6462
                    CHANNELS 3 Zrotation Xrotation Yrotation
                    JOINT RightFinger42
                    {
                      OFFSET 0.3574 -1.7166 -0.4742
                      CHANNELS 3 Zrotation Xrotation Yrotation
                      End Site
                      {
                        OFFSET 0.4187 -1.5237 -0.3496
                      }
                    }
                  }
                }
                JOINT RightFinger0
                {
                  OFFSET 1.4199 -1.8761 1.4221
                  CHANNELS 3 Zrotation Xrotation Yrotation
                  JOINT RightFinger01
                  {
                    OFFSET 1.1472 -3.4929 2.6336
                    CHANNELS 3 Zrotation Xrotation Yrotation
                    JOINT RightFinger02
                    {
                      OFFSET 0.8229 -2.3 1.6571
                      CHANNELS 3 Zrotation Xrotation Yrotation
                      End Site
                      {
                        OFFSET 0.5822 -1.6914 1.1582
                      }
                    }
                  }
                }
              }
            }
          }
        }
      }
    }
  }
  JOINT RightHip
  {
    OFFSET -9.412 3.9771 -0.7758
    CHANNELS 3 Zrotation Xrotation Yrotation
    JOINT RightKnee
    {
      OFFSET -0.7531 -40.938 0
      CHANNELS 3 Zrotation Xrotation Yrotation
      JOINT RightAnkle
      {
        OFFSET 0 -40.1986 0
        CHANNELS 3 Zrotation Xrotation Yrotation
        JOINT RightToe
        {
          OFFSET 0 -4.4182 9.239
          CHANNELS 3 Zrotation Xrotation Yrotation
          End Site
          {
            OFFSET 0 0 6.1981
          }
        }
      }
    }
  }
  JOINT LeftHip
  {
    OFFSET 9.4119 3.9773 -0.7758
    CHANNELS 3 Zrotation Xrotation Yrotation
    JOINT LeftKnee
    {
      OFFSET 0.7532 -40.9383 0
      CHANNELS 3 Zrotation Xrotation Yrotation
      JOINT LeftAnkle
      {
        OFFSET 0 -40.1986 0
        CHANNELS 3 Zrotation Xrotation Yrotation
        JOINT LeftToe
        {
          OFFSET 0 -4.4182 9.239
          CHANNELS 3 Zrotation Xrotation Yrotation
          End Site
          {
            OFFSET 0 0 6.1981
          }
        }
      }
    }
  }
}
MOTION
Frames:	7
Frame Time:	0.0333333
5.80788e-005 67.184 3.4734 0 0 -0 0 0 -0 0 0 -0 0 0 -0 0 0 -0 0.00296843 0 -0 0 0 -12.5014 88.1196 14.2451 10.6914 -0.00160068 -0.00239207 0.000740045 -8.4365e-005 7.00714e-005 -9.52055e-007 9.93923e-017 -1.98785e-016 -1.59028e-015 9.93923e-017 -5.96354e-016 -1.59028e-015 -9.93923e-017 -5.96354e-016 -1.59028e-015 9.93923e-017 -1.98785e-016 -1.59028e-015 -0.0128176 0.00232552 8.52707e-005 9.93923e-017 5.96354e-016 -0 9.93923e-017 -1.98785e-016 -1.59028e-015 -0.0160551 0.00299681 0.000857156 -2.48481e-016 0 3.18055e-015 9.93923e-017 -1.98785e-016 -1.59028e-015 -0.0125865 0.0031206 0.00282719 0 1.98785e-016 -0 9.93923e-017 -1.98785e-016 -1.59028e-015 9.93923e-017 -5.96354e-016 -1.59028e-015 -9.93923e-017 -5.96354e-016 -1.59028e-015 -0.865644 0.16582 7.03859 -88.0329 10.2057 -10.5567 0.0015593 -0.00248883 -0.000788628 7.87605e-005 4.10553e-005 1.24965e-005 -3.97569e-016 -7.95139e-016 3.18055e-015 -1.98785e-016 -3.97569e-016 3.18055e-015 -1.98785e-016 0 3.18055e-015 -3.97569e-016 -7.95139e-016 3.18055e-015 0.0129473 0.00231697 -8.70038e-005 9.93923e-017 -7.95139e-016 1.59028e-015 -3.97569e-016 -7.95139e-016 3.18055e-015 0.0163314 0.00303369 -0.000872333 3.97569e-016 7.95139e-016 -3.18055e-015 -3.97569e-016 -7.95139e-016 3.18055e-015 0.0145763 0.00367772 -0.00326275 9.93923e-017 -3.97569e-016 -0 -3.97569e-016 -7.95139e-016 3.18055e-015 -1.98785e-016 -3.97569e-016 3.18055e-015 -1.98785e-016 0 3.18055e-015 3.42485 1.36937 -0.0640303 0.000136572 0.69354 0.00145564 -3.42573 -2.06297 -0.0607933 -3.19502e-024 0 -1.48106e-024 -3.42498 1.36123 0.0639712 -6.769e-005 0.712612 -0.0012277 3.42582 -2.07388 0.0612819 2.55305e-023 0 -2.31416e-026 
15.8775 7.60984 22.3819 -0 -33.0001 -0 0 15.5995 -0 0 31.1991 -0 0 31.1989 -0 0 30.9979 -0 0.00379783 0.274514 -0.173106 7.84599e-007 -0.00126086 -12.5014 10.4372 9.20214 22.8231 -52.0659 -75.1824 -44.3318 24.6582 -4.16387 1.68522 -1.59028e-015 6.36111e-015 -7.95139e-015 7.95139e-016 0 -6.36111e-015 2.38542e-015 9.54166e-015 -6.36111e-015 -1.59028e-015 6.36111e-015 -7.95139e-015 -0.0128227 0.00232103 8.34604e-005 -1.32966e-006 9.97956e-007 1.92625e-007 -1.59028e-015 6.36111e-015 -7.95139e-015 -0.0160482 0.00299582 0.000856541 -2.38542e-015 0 1.59028e-015 -1.59028e-015 6.36111e-015 -7.95139e-015 -0.0125291 0.00310334 0.00281204 1.76556e-031 -6.36111e-015 1.59028e-015 -1.59028e-015 6.36111e-015 -7.95139e-015 7.95139e-016 0 -6.36111e-015 2.38542e-015 9.54166e-015 -6.36111e-015 -0.876307 -0.09572 24.0336 -36.9427 -17.7206 13.435 20.4213 -49.0137 14.106 19.0974 -17.0217 -7.49212 1.16786e-015 -4.21175e-015 -6.36111e-015 -1.28939e-006 -3.78718e-006 -8.65183e-007 5.14355e-015 -1.06598e-014 -9.54166e-015 1.16786e-015 -4.21175e-015 -6.36111e-015 0.0129541 0.00232219 -8.88503e-005 -1.02341e-008 2.67786e-006 2.17564e-006 1.16786e-015 -4.21175e-015 -6.36111e-015 0.0163117 0.00303873 -0.000884996 -1.04362e-015 5.46658e-016 -6.36111e-015 1.16786e-015 -4.21175e-015 -6.36111e-015 0.014556 0.00366466 -0.00325898 -3.47873e-015 7.37988e-015 -0 1.16786e-015 -4.21175e-015 -6.36111e-015 -1.28939e-006 -3.78718e-006 -8.65183e-007 5.14355e-015 -1.06598e-014 -9.54166e-015 -49.1634 -9.05295 7.05497 179.904 39.7401 175.021 -1.73435 12.5472 -3.16957 -1.19755e-007 2.59991e-006 -3.46725e-006 42.9239 -21.6149 1.62082 -179.835 31.4114 -173.183 -2.16336 39.7184 5.83947 -9.9398e-006 -5.96262e-006 5.09494e-007 
15.881 8.06597 22.3873 -0 -33.0001 -0 0 15.5995 -0 0 31.1991 -0 0 31.1989 -0 0 30.9979 -0 -0.00296985 -2.01978 -0.168489 -3.62473e-007 -0.0012878 -12.5014 10.4372 9.20211 22.8231 -55.3998 -75.743 -47.5911 23.9927 -4.06308 1.61701 -1.03591e-006 -1.9888e-006 -4.47586e-006 1.6714e-005 -1.28372e-005 -1.88629e-007 -4.47928e-006 1.5305e-005 -4.02938e-006 -1.03591e-006 -1.9888e-006 -4.47586e-006 -0.0128189 0.0023217 8.06695e-005 9.50765e-007 5.78258e-006 -1.97446e-007 -1.03591e-006 -1.9888e-006 -4.47586e-006 -0.0160867 0.00301198 0.000852353 -1.59028e-015 -1.22504e-008 -3.18055e-015 -1.03591e-006 -1.9888e-006 -4.47586e-006 -0.0125852 0.00312058 0.0028284 3.9519e-006 2.73956e-006 -2.14631e-006 -1.03591e-006 -1.9888e-006 -4.47586e-006 1.6714e-005 -1.28372e-005 -1.88629e-007 -4.47928e-006 1.5305e-005 -4.02938e-006 -0.876304 -0.0957559 24.0336 -38.896 -17.8552 13.6205 23.177 -53.1407 14.7703 19.0972 -17.0213 -7.49234 -6.63133e-008 -2.77953e-006 -2.10789e-006 -1.34951e-006 -1.05165e-006 -8.06602e-007 -1.79315e-030 -6.4605e-015 -1.59028e-014 -6.63133e-008 -2.77953e-006 -2.10789e-006 0.012953 0.0022967 -6.9458e-005 -1.11407e-005 9.61519e-006 -1.27168e-005 -6.63133e-008 -2.77953e-006 -2.10789e-006 0.0163501 0.00302838 -0.000871047 -6.54356e-008 -5.5403e-006 -2.10793e-006 -6.63133e-008 -2.77953e-006 -2.10789e-006 0.0145749 0.00364901 -0.0032481 -1.34963e-006 -3.66335e-006 -8.06651e-007 -6.63133e-008 -2.77953e-006 -2.10789e-006 -1.34951e-006 -1.05165e-006 -8.06602e-007 -1.79315e-030 -6.4605e-015 -1.59028e-014 -47.9843 -9.30833 7.34413 179.905 39.745 175.03 -1.73211 12.4907 -3.1645 7.37749e-006 4.62248e-006 -8.78994e-006 41.589 -21.304 0.471268 -179.838 31.8696 -173.309 -2.08734 39.6284 5.7259 3.18055e-015 -3.18055e-015 -4.77083e-015 
15.8845 8.52216 22.3928 -0 -33.0001 -0 0 15.5995 -0 0 31.1991 -0 0 31.1989 -0 0 30.9979 -0 -0.00621585 -4.34278 -0.163941 -3.62473e-007 -0.0012878 -12.5014 10.4372 9.20213 22.8231 -59.0066 -76.2554 -51.1231 23.3261 -3.96128 1.54981 1.59028e-015 0 -1.59028e-015 -7.95139e-016 0 4.77083e-015 -7.95139e-016 3.18055e-015 3.18055e-015 1.59028e-015 0 -1.59028e-015 -0.0128033 0.00231939 8.88298e-005 6.40555e-008 -9.61576e-006 -6.76713e-007 1.59028e-015 0 -1.59028e-015 -0.0160283 0.00298473 0.000857808 -6.3221e-008 5.41797e-006 6.76511e-007 1.59028e-015 0 -1.59028e-015 -0.0126463 0.00313347 0.00283934 -7.95139e-016 -3.18055e-015 -4.77083e-015 1.59028e-015 0 -1.59028e-015 -7.95139e-016 0 4.77083e-015 -7.95139e-016 3.18055e-015 3.18055e-015 -0.876304 -0.0957559 24.0336 -40.8534 -17.9955 13.8021 26.3303 -57.254 15.8762 19.0975 -17.0219 -7.49204 1.00246e-005 -1.46347e-005 3.03224e-006 -1.31246e-006 1.27251e-006 2.02419e-006 -2.10605e-005 2.14357e-005 -1.18913e-005 1.00246e-005 -1.46347e-005 3.03224e-006 0.012943 0.00231538 -9.09734e-005 -1.40658e-006 -9.55636e-006 -7.4396e-007 1.00246e-005 -1.46347e-005 3.03224e-006 0.0163222 0.00304929 -0.000882454 -9.65903e-007 -1.55527e-006 1.15173e-006 1.00246e-005 -1.46347e-005 3.03224e-006 0.0145928 0.00367114 -0.00324755 1.2973e-007 -2.80186e-006 2.03555e-006 1.00246e-005 -1.46347e-005 3.03224e-006 -1.31246e-006 1.27251e-006 2.02419e-006 -2.10605e-005 2.14357e-005 -1.18913e-005 -46.8012 -9.55808 7.63902 179.905 39.7501 175.039 -1.73017 12.4339 -3.15999 1.59028e-015 -9.54166e-015 -4.77083e-015 40.259 -20.9738 -0.662932 -179.84 32.3286 -173.429 -2.01449 39.5398 5.61774 -5.27661e-008 1.18974e-005 7.5438e-006 
15.8881 8.97841 22.3983 -0 -33.0001 -0 0 15.5995 -0 0 31.1991 -0 0 31.1989 -0 0 30.9979 -0 -0.0093699 -6.69315 -0.159457 -3.62473e-007 -0.0012878 -12.5014 10.4372 9.20212 22.8231 -62.8898 -76.7129 -54.9312 22.6585 -3.85854 1.48373 7.95139e-016 0 1.59028e-015 1.59028e-015 -3.18055e-015 3.18055e-015 -0 0 1.59028e-015 7.95139e-016 0 1.59028e-015 -0.0128234 0.00233254 9.03476e-005 7.15625e-015 6.36111e-015 -4.77083e-015 7.95139e-016 0 1.59028e-015 -0.0160662 0.00300205 0.000858536 -2.34089e-006 3.3736e-006 2.81024e-006 7.95139e-016 0 1.59028e-015 -0.0125664 0.00312851 0.00282423 3.97569e-015 -6.36111e-015 -1.59028e-015 7.95139e-016 0 1.59028e-015 1.59028e-015 -3.18055e-015 3.18055e-015 -0 0 1.59028e-015 -0.876304 -0.0957559 24.0336 -42.8162 -18.1423 13.9785 30.054 -61.3231 17.5937 19.0974 -17.0215 -7.49223 4.31705e-006 2.95378e-006 -5.01069e-006 -1.04304e-005 1.62902e-005 -2.72487e-006 2.19248e-005 -3.11255e-005 6.18578e-006 4.31705e-006 2.95378e-006 -5.01069e-006 0.0129555 0.00233539 -9.67939e-005 1.13748e-005 -1.15526e-005 8.54522e-006 4.31705e-006 2.95378e-006 -5.01069e-006 0.0163785 0.00303977 -0.000871862 -8.88612e-006 1.53171e-005 -3.15393e-006 4.31705e-006 2.95378e-006 -5.01069e-006 0.014535 0.00366942 -0.00324306 5.78407e-007 2.49332e-006 1.90093e-006 4.31705e-006 2.95378e-006 -5.01069e-006 -1.04304e-005 1.62902e-005 -2.72487e-006 2.19248e-005 -3.11255e-005 6.18578e-006 -45.6143 -9.80193 7.93962 179.905 39.755 175.046 -1.72843 12.3767 -3.15595 -1.71392e-006 1.15468e-005 -8.15064e-006 38.9349 -20.6247 -1.78127 -179.843 32.7886 -173.543 -1.94465 39.4527 5.51478 2.48969e-006 7.27922e-006 -6.1981e-007 
15.8918 9.43472 22.4038 -0 -33.0001 -0 0 15.5995 -0 0 31.1991 -0 0 31.1989 -0 0 30.9979 -0 -0.0122957 -9.06933 -0.155028 -3.62473e-007 -0.0012878 -12.5014 10.4372 9.20212 22.8231 -67.0448 -77.1086 -59.0109 21.9898 -3.75482 1.41873 7.15625e-015 3.18055e-015 -7.95139e-015 -0 -6.36111e-015 -0 1.59028e-015 -1.59028e-014 -3.18055e-015 7.15625e-015 3.18055e-015 -7.95139e-015 -0.0127601 0.0023144 8.55058e-005 -7.95139e-016 -3.18055e-015 3.18055e-015 7.15625e-015 3.18055e-015 -7.95139e-015 -0.0160777 0.0030022 0.000859867 3.28627e-006 -1.79136e-006 2.4995e-006 7.15625e-015 3.18055e-015 -7.95139e-015 -0.0125858 0.00311638 0.00282479 -2.38542e-015 3.18055e-015 3.18055e-015 7.15625e-015 3.18055e-015 -7.95139e-015 -0 -6.36111e-015 -0 1.59028e-015 -1.59028e-014 -3.18055e-015 -0.876304 -0.0957559 24.0336 -44.782 -18.295 14.1498 34.6105 -65.3051 20.1866 19.0974 -17.0212 -7.49233 -2.0792e-006 -2.79788e-006 2.56221e-006 3.55189e-006 -2.1428e-005 8.92207e-006 7.95139e-016 -8.34896e-015 3.18055e-015 -2.0792e-006 -2.79788e-006 2.56221e-006 0.0130069 0.00230035 -7.77952e-005 -1.59028e-015 5.96354e-015 -0 -2.0792e-006 -2.79788e-006 2.56221e-006 0.0163023 0.0030225 -0.000867593 5.8895e-006 -8.25435e-007 -2.63454e-006 -2.0792e-006 -2.79788e-006 2.56221e-006 0.0146038 0.00366089 -0.00326705 -1.92445e-005 2.46437e-005 -9.57047e-007 -2.0792e-006 -2.79788e-006 2.56221e-006 3.55189e-006 -2.1428e-005 8.92207e-006 7.95139e-016 -8.34896e-015 3.18055e-015 -44.424 -10.0399 8.24578 179.906 39.7598 175.053 -1.72692 12.3193 -3.1524 1.9578e-006 8.5739e-006 -6.33012e-006 37.6171 -20.2571 -2.88341 -179.846 33.2492 -173.651 -1.87753 39.3674 5.41677 1.21549e-005 -9.59689e-007 -4.47517e-006 
15.8955 9.8911 22.4092 -0 -33.0001 -0 0 15.5995 -0 0 31.1991 -0 0 31.1989 -0 0 30.9979 -0 -0.0151291 -11.4697 -0.150648 -3.62473e-007 -0.0012878 -12.5014 10.4372 9.20211 22.8231 -71.4538 -77.4356 -63.3443 21.3202 -3.65019 1.35485 1.48123e-006 1.9866e-006 -2.60889e-006 3.18055e-015 9.54166e-015 1.59028e-015 -1.00912e-006 -2.60034e-008 -1.34157e-006 1.48123e-006 1.9866e-006 -2.60889e-006 -0.0128542 0.00233519 8.76492e-005 -2.69361e-006 -1.56492e-006 -1.27376e-007 1.48123e-006 1.9866e-006 -2.60889e-006 -0.0160404 0.00300804 0.000854249 -8.59615e-006 1.0817e-006 2.73402e-006 1.48123e-006 1.9866e-006 -2.60889e-006 -0.0125948 0.00313653 0.00282313 -2.76733e-006 -4.22562e-006 9.81974e-007 1.48123e-006 1.9866e-006 -2.60889e-006 3.18055e-015 9.54166e-015 1.59028e-015 -1.00912e-006 -2.60034e-008 -1.34157e-006 -0.876304 -0.0957559 24.0336 -46.7479 -18.4524 14.3163 41.8137 -68.8252 25.2411 19.0975 -17.0215 -7.49219 -7.95139e-016 3.97569e-015 3.18055e-015 -9.36869e-006 1.07071e-005 3.58325e-006 6.36111e-015 -3.18055e-015 -6.36111e-015 -7.95139e-016 3.97569e-015 3.18055e-015 0.0129651 0.00230825 -8.35149e-005 -9.0581e-006 2.29191e-005 -2.79835e-006 -7.95139e-016 3.97569e-015 3.18055e-015 0.0163534 0.00303523 -0.000876942 1.98785e-015 -5.56597e-015 9.54166e-015 -7.95139e-016 3.97569e-015 3.18055e-015 0.0146414 0.00368148 -0.0032715 -1.35611e-005 2.3942e-005 -1.18697e-006 -7.95139e-016 3.97569e-015 3.18055e-015 -9.36869e-006 1.07071e-005 3.58325e-006 6.36111e-015 -3.18055e-015 -6.36111e-015 -43.2305 -10.2715 8.55727 179.906 39.7646 175.059 -1.72573 12.2617 -3.14937 -9.05559e-006 -8.88496e-006 1.16353e-005 36.3066 -19.8713 -3.96889 -179.849 33.7104 -173.753 -1.81306 39.2838 5.32355 9.3265e-006 1.97379e-005 4.02158e-006 
